<?xml version="1.0" standalone="no"?>
<!DOCTYPE svg PUBLIC "-//W3C//DTD SVG 20010904//EN"
 "http://www.w3.org/TR/2001/REC-SVG-20010904/DTD/svg10.dtd">
<svg version="1.0" xmlns="http://www.w3.org/2000/svg"
 width="2000.000000pt" height="1250.000000pt" viewBox="0 0 2000.000000 1250.000000"
 preserveAspectRatio="xMidYMid meet">

<g transform="translate(0.000000,1250.000000) scale(0.100000,-0.100000)"
fill="#000000" stroke="none">
<path d="M16610 12489 c0 -5 5 -7 10 -4 6 3 10 8 10 11 0 2 -4 4 -10 4 -5 0
-10 -5 -10 -11z"/>
<path d="M5905 11849 c-163 -23 -313 -62 -472 -121 l-83 -31 0 -93 0 -94 -169
0 -169 0 -91 -70 c-50 -39 -120 -98 -156 -131 l-65 -61 0 -1438 0 -1438 77
-68 c43 -38 86 -76 96 -85 10 -9 53 -42 96 -73 l78 -56 322 0 321 0 0 -110 0
-110 -92 -1 -93 0 80 -25 c240 -76 594 -105 847 -70 120 17 283 53 363 81 38
13 30 14 -130 17 l-170 3 0 105 0 105 273 3 272 2 0 -71 0 -70 101 53 c55 29
108 60 117 69 9 8 25 18 35 22 28 11 197 140 271 208 62 57 66 63 66 105 l0
44 40 0 c37 0 44 5 95 67 30 37 55 71 55 75 0 4 -124 8 -275 8 l-275 0 0 110
0 110 352 2 351 3 48 95 c100 202 171 457 195 703 l6 67 -401 0 -401 0 0 110
0 110 400 0 400 0 0 33 c0 17 -3 49 -6 70 l-7 37 -298 0 -299 0 0 110 0 110
281 0 281 0 -7 33 c-30 147 -125 382 -220 542 -323 547 -860 908 -1486 999
-116 17 -448 20 -554 5z m-145 -599 l0 -110 -335 0 -335 0 0 110 0 110 335 0
335 0 0 -110z m770 0 l0 -110 -265 0 -265 0 0 110 0 110 265 0 265 0 0 -110z
m770 5 l0 -105 -265 0 -265 0 0 105 0 105 265 0 265 0 0 -105z m-1000 -365 l0
-110 -605 0 -605 0 0 110 0 110 605 0 605 0 0 -110z m620 0 l0 -110 -195 0
-195 0 0 103 c0 57 3 107 7 110 3 4 91 7 195 7 l188 0 0 -110z m820 0 l0 -110
-295 0 -295 0 0 110 0 110 295 0 295 0 0 -110z m-2392 -362 l3 -108 -251 0
-250 0 0 103 c0 57 3 107 7 111 4 3 115 5 247 4 l241 -3 3 -107z m222 -362 c0
-104 0 -104 -26 -109 -14 -2 -140 -4 -280 -4 l-254 0 0 108 0 109 280 0 280 0
0 -104z m798 -3 l-3 -108 -280 0 -280 0 -3 108 -3 107 286 0 286 0 -3 -107z
m1002 -3 l0 -110 -385 0 -385 0 0 110 0 110 385 0 385 0 0 -110z m-1450 -360
l0 -110 -455 0 -455 0 0 110 0 110 455 0 455 0 0 -110z m780 0 l0 -110 -270 0
-270 0 0 110 0 110 270 0 270 0 0 -110z m490 0 l0 -110 -130 0 -130 0 0 103
c0 57 3 107 7 110 3 4 62 7 130 7 l123 0 0 -110z m-1550 -370 l0 -110 -315 0
-315 0 0 110 0 110 315 0 315 0 0 -110z m1440 5 l0 -105 -605 0 -605 0 0 105
0 105 605 0 605 0 0 -105z m900 -5 l0 -110 -332 2 -333 3 -3 108 -3 107 336 0
335 0 0 -110z m-2630 -360 l0 -110 -245 0 -245 0 0 110 0 110 245 0 245 0 0
-110z m0 -361 l0 -109 -170 0 -170 0 0 110 0 111 170 -1 170 -2 0 -109z m734
89 c3 -13 4 -61 3 -108 l-2 -85 -252 -3 -253 -2 0 103 c0 57 3 107 7 110 3 4
116 7 249 7 l244 0 4 -22z m946 -88 l0 -110 -355 0 -355 0 0 103 c0 57 3 107
7 111 4 3 163 6 355 6 l348 -1 0 -109z m-1192 -367 l-3 -108 -412 -3 -413 -2
0 110 0 110 415 0 416 0 -3 -107z m772 -3 l0 -110 -270 0 -270 0 0 110 0 110
270 0 270 0 0 -110z m780 5 l0 -105 -270 0 -270 0 0 105 0 105 270 0 270 0 0
-105z m-1130 -365 l0 -110 -165 0 -165 0 0 110 0 110 165 0 165 0 0 -110z"/>
<path d="M4604 11138 c-17 -18 -50 -58 -73 -89 l-41 -56 0 -106 0 -107 -65 0
-65 0 -35 -70 -35 -70 100 0 100 0 0 -115 0 -116 -117 3 -118 3 -5 60 -5 60
-29 -95 c-44 -149 -45 -152 -56 -210 -53 -280 -53 -583 0 -840 15 -72 69 -261
81 -280 6 -10 8 -2 9 28 l0 42 120 0 120 0 0 -110 0 -110 -90 0 c-55 0 -90 -4
-90 -10 0 -6 14 -37 30 -70 l30 -60 60 0 60 0 0 -97 1 -98 72 -90 72 -90 3
683 c1 375 1 988 0 1363 l-3 680 -31 -33z m-114 -978 l0 -110 -120 0 -120 0 0
110 0 110 120 0 120 0 0 -110z m0 -360 l0 -110 -120 0 -120 0 0 110 0 110 120
0 120 0 0 -110z m0 -370 l0 -110 -120 0 -120 0 0 110 0 110 120 0 120 0 0
-110z"/>
<path d="M9620 9014 c-6 -14 -10 -31 -10 -38 0 -23 -30 -111 -45 -130 -13 -18
-15 -18 -42 1 -39 27 -90 46 -102 38 -6 -3 -11 -39 -11 -80 0 -125 -30 -157
-102 -110 -45 30 -56 26 -76 -30 -58 -163 -108 -269 -141 -299 -21 -19 -22
-19 -52 3 -38 28 -38 28 -78 -94 -82 -248 -119 -474 -128 -790 -6 -218 9 -510
27 -528 8 -9 73 148 114 279 55 175 114 449 131 615 4 36 10 71 14 77 4 7 24
6 66 -4 384 -92 633 -124 966 -124 235 0 439 15 635 46 55 8 117 18 140 21
l41 5 16 -78 c9 -44 28 -149 42 -234 15 -85 42 -243 61 -350 19 -107 37 -210
40 -229 3 -18 7 -31 10 -29 8 9 34 468 34 618 0 406 -56 729 -149 857 -26 36
-101 103 -115 103 -3 0 -6 -19 -7 -42 -1 -85 -12 -88 -53 -12 -112 204 -309
362 -554 445 -89 30 -122 30 -122 0 0 -31 -21 -79 -36 -85 -9 -3 -27 5 -42 20
-71 68 -193 128 -334 164 -104 27 -126 26 -138 -6z"/>
<path d="M9253 7199 c-108 -16 -145 -42 -110 -76 13 -13 25 -14 88 -3 102 17
287 15 392 -5 69 -13 91 -14 103 -4 35 29 8 56 -79 75 -79 18 -313 26 -394 13z"/>
<path d="M10405 7203 c-130 -17 -175 -42 -138 -78 12 -13 26 -15 52 -11 136
25 338 23 455 -3 61 -15 86 -7 86 25 0 31 -21 39 -143 59 -84 14 -238 18 -312
8z"/>
<path d="M9140 7068 c-142 -10 -155 -16 -154 -79 1 -30 9 -49 31 -72 28 -30
31 -41 47 -182 10 -84 25 -165 34 -185 37 -75 158 -104 417 -98 139 3 154 5
205 30 65 32 88 65 165 236 29 64 62 123 74 130 14 10 33 12 57 8 32 -6 38
-13 61 -64 71 -163 125 -263 156 -286 52 -40 134 -56 287 -56 224 1 325 25
371 90 12 17 25 77 40 190 21 154 25 167 51 192 21 20 28 35 28 65 0 69 -5 71
-200 84 -320 21 -578 0 -700 -59 -74 -35 -155 -35 -225 0 -27 14 -72 30 -100
37 -132 30 -385 38 -645 19z m455 -38 c195 -18 275 -58 275 -138 0 -84 -88
-299 -143 -351 -51 -47 -227 -64 -416 -41 -130 17 -159 39 -187 142 -16 62
-18 217 -4 270 20 70 86 104 225 118 107 11 132 11 250 0z m1050 0 c72 -7 114
-17 152 -36 77 -37 87 -61 86 -209 0 -103 -3 -129 -24 -180 -19 -48 -31 -63
-59 -77 -77 -38 -390 -49 -480 -17 -51 17 -64 32 -108 118 -81 156 -106 278
-67 321 48 53 155 79 365 88 19 1 80 -3 135 -8z"/>
<path d="M9545 6788 c-33 -4 -102 -5 -152 -1 -106 7 -116 -2 -63 -56 40 -39
118 -58 178 -42 53 15 105 59 100 86 -3 18 -8 19 -63 13z"/>
<path d="M10625 6788 c-33 -4 -102 -5 -152 -1 -84 5 -93 4 -93 -12 0 -30 57
-73 113 -85 39 -9 62 -9 95 -1 53 15 105 59 100 86 -3 18 -8 19 -63 13z"/>
<path d="M11126 6865 c-39 -296 -195 -554 -444 -732 l-63 -46 -54 57 c-62 65
-147 110 -240 127 -80 15 -235 4 -285 -20 -36 -17 -38 -17 -76 2 -31 16 -64
22 -154 25 -183 7 -277 -25 -380 -130 -59 -60 -54 -62 -179 39 -122 97 -214
210 -279 339 -50 98 -78 185 -97 293 -9 47 -17 86 -19 88 -10 11 -20 -139 -21
-337 -2 -210 -3 -228 -24 -275 -86 -189 -100 -325 -40 -385 l28 -28 -14 -88
c-51 -312 32 -523 226 -575 l46 -12 12 -96 c22 -180 64 -271 143 -310 55 -26
171 -29 279 -6 40 9 73 14 73 13 55 -121 84 -160 168 -223 66 -49 232 -135
262 -135 29 0 164 67 231 114 77 56 146 131 174 192 19 39 25 45 44 40 118
-34 266 -33 335 3 94 48 164 205 187 418 l7 62 54 16 c65 19 129 73 155 130
37 81 21 259 -36 405 l-23 58 29 28 c16 16 34 46 40 69 16 59 4 176 -30 283
-23 74 -27 100 -20 130 10 43 10 378 0 467 l-7 60 -8 -60z"/>
<path d="M13142 5132 l-233 -207 -306 -135 c-167 -74 -307 -138 -309 -142 -2
-3 103 -107 233 -230 130 -123 313 -296 405 -385 93 -90 172 -163 176 -163 5
0 51 111 103 248 93 242 95 247 124 250 30 2 54 -16 220 -167 22 -20 123 -111
225 -201 776 -693 740 -659 740 -699 0 -20 5 -53 11 -74 9 -35 7 -43 -32 -115
-49 -89 -81 -148 -136 -252 -34 -64 -186 -346 -285 -530 -17 -30 -91 -168
-165 -307 -125 -233 -140 -255 -187 -290 -133 -99 -169 -261 -91 -401 21 -38
25 -58 25 -132 0 -71 -3 -89 -16 -94 -24 -9 -382 -7 -388 2 -3 5 2 31 10 58
13 40 15 83 10 234 -8 268 -33 457 -131 995 -14 77 -57 325 -95 550 -38 226
-81 478 -95 560 -68 398 -85 498 -85 505 0 4 -28 10 -62 12 -99 8 -211 82
-286 187 -52 71 -64 108 -60 181 3 58 1 65 -17 68 -11 2 -60 17 -110 32 -49
15 -166 48 -260 74 -93 25 -309 83 -480 129 -170 47 -350 95 -399 107 l-88 24
-62 -70 c-244 -276 -510 -430 -829 -481 -135 -21 -406 -13 -522 15 -288 70
-522 213 -724 443 -41 46 -80 85 -87 87 -6 2 -238 -58 -515 -134 -277 -75
-517 -140 -534 -144 -16 -4 -119 -33 -227 -64 -108 -31 -203 -56 -210 -56 -29
0 -116 -50 -156 -90 -58 -57 -79 -103 -96 -207 -8 -48 -29 -167 -45 -263 -17
-96 -46 -272 -66 -390 -19 -118 -42 -251 -50 -295 -18 -99 -73 -419 -86 -500
-5 -33 -13 -82 -18 -110 -4 -27 -25 -141 -46 -252 l-38 -201 -156 5 c-107 4
-206 0 -316 -11 -204 -21 -205 -21 -205 -58 0 -21 -6 -31 -20 -35 -17 -5 -20
-14 -20 -59 l0 -54 471 0 c443 0 470 -1 465 -17 -2 -10 -7 -47 -11 -83 -3 -36
-12 -112 -20 -170 -17 -127 -39 -335 -60 -569 -15 -165 -15 -174 2 -193 29
-32 131 -87 209 -114 69 -23 84 -24 314 -24 l242 0 -32 26 c-54 46 -63 75
-100 349 -5 39 -17 115 -25 170 -26 166 -35 227 -45 305 -6 41 -12 81 -15 90
-2 8 -9 53 -15 100 -15 114 -24 174 -55 380 -15 96 -31 202 -35 235 -25 174
-81 552 -85 565 -2 8 -9 51 -15 95 -5 44 -15 112 -20 150 -21 136 -6 230 47
294 l28 33 2660 0 c1463 -1 2665 -1 2672 -1 22 -1 63 -55 84 -111 25 -66 23
-113 -16 -360 -14 -91 -30 -196 -35 -235 -5 -38 -17 -113 -25 -165 -8 -52 -19
-126 -25 -165 -5 -38 -16 -117 -25 -175 -9 -58 -20 -132 -25 -165 -4 -33 -20
-139 -35 -235 -15 -96 -30 -202 -35 -235 -10 -71 -24 -163 -45 -300 -8 -55
-20 -131 -25 -170 -5 -38 -16 -115 -25 -170 -8 -55 -18 -120 -22 -145 -8 -62
-36 -114 -75 -139 l-33 -21 246 0 c236 0 248 1 319 25 40 14 92 36 116 50 23
14 47 25 53 25 7 0 11 -23 11 -55 l0 -55 1175 0 c793 0 1176 4 1180 11 4 5 1
16 -5 24 -11 13 -110 15 -700 15 -653 0 -688 1 -703 18 -14 15 -17 41 -17 148
0 71 5 136 10 144 8 13 101 16 702 20 l693 5 3 22 3 23 -688 2 -688 3 -3 23
c-2 15 2 22 12 22 14 0 16 18 16 125 0 104 -2 125 -15 125 -8 0 -15 9 -15 20
0 20 7 20 640 20 518 0 640 2 640 13 0 36 -12 37 -585 37 -423 0 -564 3 -573
12 -19 19 -16 222 4 242 14 15 77 16 572 16 528 -1 557 0 557 17 0 17 -27 18
-482 21 -266 1 -483 5 -483 8 0 3 20 43 44 87 258 480 391 728 433 812 109
213 137 259 173 280 19 11 60 45 92 77 45 45 60 68 74 114 29 100 4 207 -66
288 -39 44 -136 96 -180 96 -33 0 10 -37 -1102 958 -117 104 -128 117 -128
148 0 19 -6 47 -14 62 -13 26 -11 30 62 121 l76 94 -179 174 c-99 95 -184 173
-190 173 -5 0 -115 -94 -243 -208z m529 -654 c105 -94 867 -773 963 -859 l41
-37 -52 -46 c-29 -26 -60 -64 -69 -86 l-17 -39 -27 22 c-15 12 -270 239 -567
504 -514 460 -539 484 -535 513 2 18 -2 40 -12 54 -15 23 -14 26 9 54 24 28
29 30 88 27 l62 -4 116 -103z m952 -1393 c23 -20 63 -43 89 -53 27 -9 48 -21
48 -25 0 -22 -616 -1156 -628 -1157 -25 0 -62 -48 -62 -80 0 -16 -2 -30 -4
-30 -2 0 -24 9 -49 20 -25 11 -70 21 -101 23 -31 1 -56 3 -56 5 0 3 132 251
190 357 15 28 65 120 110 205 45 85 108 202 140 260 31 58 79 146 105 195 47
88 67 125 136 253 18 34 35 62 37 62 2 0 22 -16 45 -35z"/>
<path d="M5447 2792 c-9 -2 -17 -12 -17 -23 0 -18 8 -19 140 -19 l140 0 0 24
0 23 -123 -1 c-68 0 -131 -2 -140 -4z"/>
<path d="M5522 2703 c3 -18 26 -19 181 -13 4 0 7 7 7 15 0 12 -17 15 -96 15
-86 0 -95 -2 -92 -17z"/>
<path d="M5527 2654 c-4 -4 -7 -13 -7 -21 0 -10 23 -13 96 -13 86 0 95 2 92
18 -3 14 -17 17 -89 20 -47 1 -88 0 -92 -4z"/>
<path d="M5524 2585 c-4 -10 -21 -15 -53 -15 -60 0 -71 -8 -77 -56 -3 -21 -8
-50 -10 -64 -5 -22 -7 -23 -15 -7 -10 18 -34 23 -43 9 -3 -5 -10 -73 -16 -153
-5 -79 -13 -165 -16 -191 -6 -47 -6 -48 20 -48 25 0 26 2 27 58 2 118 17 252
29 252 16 0 16 -28 6 -330 l-11 -305 -110 0 c-71 -1 -118 -6 -134 -14 -24 -13
-24 -14 -18 -130 4 -64 11 -262 17 -441 6 -181 15 -337 21 -352 6 -15 20 -30
30 -33 10 -4 19 -15 19 -26 0 -19 9 -19 328 -17 l327 3 3 23 c3 17 10 22 33
22 27 0 29 3 29 38 0 20 7 188 15 372 15 362 20 539 14 544 -2 2 -51 6 -109 9
-58 3 -106 6 -107 6 -7 2 -1 61 23 214 30 187 20 174 116 158 l47 -8 10 46 c5
25 13 70 17 99 3 28 11 52 15 52 5 0 7 -10 5 -22 -28 -133 -32 -168 -17 -152
20 20 59 324 42 324 -5 0 -12 -6 -14 -12 -4 -9 -6 -7 -6 3 -1 15 -58 39 -94
39 -9 0 -20 7 -25 15 -7 14 -11 14 -38 0 -29 -14 -32 -21 -59 -147 -15 -73
-29 -134 -30 -136 -2 -2 -14 0 -29 4 -33 8 -34 24 -1 24 16 0 25 6 25 15 0 9
-9 15 -25 15 -31 0 -34 27 -3 32 13 2 24 11 26 21 3 13 -3 17 -29 17 -24 0
-30 3 -22 11 6 6 19 12 29 13 11 2 20 10 22 19 3 12 -4 17 -22 17 -32 0 -35
17 -3 22 14 2 23 11 25 26 3 19 -1 22 -27 22 -21 0 -31 5 -31 15 0 10 10 15
30 15 20 0 30 5 30 15 0 8 -9 15 -19 15 -26 0 -51 10 -51 21 0 5 16 9 35 9 28
0 35 4 35 20 0 19 -7 20 -90 20 -71 0 -92 -3 -96 -15z m180 -420 c-4 -8 -15
-15 -25 -15 -10 0 -19 7 -19 15 0 9 9 15 25 15 18 0 23 -4 19 -15z m4 -67 c-7
-20 -48 -23 -48 -4 0 11 9 16 26 16 16 0 24 -5 22 -12z m-13 -68 c-3 -5 -13
-10 -21 -10 -8 0 -14 5 -14 10 0 6 9 10 21 10 11 0 17 -4 14 -10z m-5 -60 c0
-5 -4 -10 -10 -10 -5 0 -10 5 -10 10 0 6 5 10 10 10 6 0 10 -4 10 -10z m-13
-72 c-3 -8 -6 -5 -6 6 -1 11 2 17 5 13 3 -3 4 -12 1 -19z"/>
<path d="M5103 2449 c-22 -6 -33 -16 -33 -28 0 -17 3 -17 73 -1 39 9 72 21 72
26 0 13 -73 15 -112 3z"/>
<path d="M14660 1635 c0 -49 1 -51 30 -33 15 10 22 10 32 0 21 -21 28 -13 28
33 l0 45 -45 0 -45 0 0 -45z"/>
<path d="M6164 1598 c3 -18 10 -80 16 -138 6 -58 15 -143 20 -190 5 -47 10
-93 10 -102 0 -15 10 -18 61 -18 l61 0 -6 78 c-15 170 -37 378 -41 390 -3 8
-26 12 -66 12 l-61 0 6 -32z"/>
<path d="M6523 1485 c-47 -40 -73 -89 -73 -138 0 -66 11 -74 34 -26 15 31 33
50 66 66 78 41 128 105 98 125 -31 19 -84 8 -125 -27z"/>
<path d="M6660 1468 c0 -36 -26 -66 -87 -100 -30 -17 -64 -45 -74 -62 -18 -29
-18 -32 -2 -43 76 -57 222 88 195 192 -10 36 -32 45 -32 13z"/>
<path d="M14460 1290 l0 -61 31 16 c28 15 33 15 54 1 14 -9 27 -16 30 -16 3 0
5 27 5 60 l0 60 -60 0 -60 0 0 -60z"/>
<path d="M15035 940 c-7 -11 -5 -89 2 -102 2 -4 15 -1 28 8 21 14 26 14 49 -1
l26 -17 0 61 0 61 -49 0 c-28 0 -53 -5 -56 -10z"/>
<path d="M6292 749 c3 -21 8 -24 41 -23 20 0 145 1 277 2 206 2 240 4 240 17
0 13 -31 15 -219 15 -120 0 -246 3 -280 7 -62 6 -63 6 -59 -18z"/>
<path d="M4830 240 l0 -70 5164 0 5164 0 4 70 3 70 -5167 0 -5168 0 0 -70z"/>
</g>
</svg>
